# xmcd
#
# Track frame offsets:
#	187
#	15872
#	49055
#	68072
#	94555
#	109362
#	135165
#
# Disc length: 2513 seconds
#
# Revision: 1
# Processed by: cddbd v1.5.1PL0 Copyright (c) Steve Scherf et al.
# Submitted via: CDex 1.50Beta5
#
DISCID=4b09cf07
DTITLE=和田薫 - 交響聖譚曲サイレントメビウス
DYEAR=1900
DGENRE=Anime
TTITLE0=第1楽章 プロローグ〜聖剣の天使ミカエル
TTITLE1=第2楽章 メネシスの黙示
TTITLE2=第3楽章 ATTACKED MYSTIFICATION POLICE DEPARTMENT
TTITLE3=第4楽章 六芒の精霊たち
TTITLE4=第5楽章 ルシファーホークの咆哮
TTITLE5=第6楽章 聖母子の肖像
TTITLE6=第7楽章 ソロモンの鍵
EXTD=劇場版「サイレントメビウス」
EXTT0=
EXTT1=
EXTT2=
EXTT3=
EXTT4=
EXTT5=
EXTT6=
PLAYORDER=
